<mxfile host="app.diagrams.net" agent="Mozilla/5.0 (Windows NT 10.0; Win64; x64) AppleWebKit/537.36 (KHTML, like Gecko) Chrome/132.0.0.0 Safari/537.36" version="26.0.14">
  <diagram name="Page-1" id="PI_wZr-HfrRx3oU5T4_2">
    <mxGraphModel dx="3010" dy="557" grid="1" gridSize="10" guides="1" tooltips="1" connect="1" arrows="1" fold="1" page="1" pageScale="1" pageWidth="980" pageHeight="1390" math="0" shadow="0">
      <root>
        <mxCell id="0" />
        <mxCell id="1" parent="0" />
        <mxCell id="cZ7Azyq3l8PFZMw_IofY-2" value="&lt;?xml version=&quot;1.0&quot; encoding=&quot;UTF-8&quot;?&gt;" style="swimlane;fontStyle=1;childLayout=stackLayout;horizontal=1;startSize=26;horizontalStack=0;resizeParent=1;resizeParentMax=0;resizeLast=0;collapsible=1;marginBottom=0;" vertex="1" parent="1">
          <mxGeometry x="-1330" y="160" width="1100" height="260" as="geometry" />
        </mxCell>
        <mxCell id="cZ7Azyq3l8PFZMw_IofY-3" value="&lt;mxGraphModel dx=&quot;889&quot; dy=&quot;438&quot; grid=&quot;1&quot; gridSize=&quot;10&quot; guides=&quot;1&quot; tooltips=&quot;1&quot; connect=&quot;1&quot; arrows=&quot;1&quot; fold=&quot;1&quot; page=&quot;1&quot; pageScale=&quot;1&quot; pageWidth=&quot;827&quot; pageHeight=&quot;1169&quot; math=&quot;0&quot; shadow=&quot;0&quot;&gt;" style="text;strokeColor=none;fillColor=none;align=left;verticalAlign=top;spacingLeft=4;spacingRight=4;overflow=hidden;rotatable=0;points=[[0,0.5],[1,0.5]];portConstraint=eastwest;" vertex="1" parent="cZ7Azyq3l8PFZMw_IofY-2">
          <mxGeometry y="26" width="1100" height="26" as="geometry" />
        </mxCell>
        <mxCell id="cZ7Azyq3l8PFZMw_IofY-4" value="  &lt;root&gt;" style="text;strokeColor=none;fillColor=none;align=left;verticalAlign=top;spacingLeft=4;spacingRight=4;overflow=hidden;rotatable=0;points=[[0,0.5],[1,0.5]];portConstraint=eastwest;" vertex="1" parent="cZ7Azyq3l8PFZMw_IofY-2">
          <mxGeometry y="52" width="1100" height="26" as="geometry" />
        </mxCell>
        <mxCell id="cZ7Azyq3l8PFZMw_IofY-5" value="    &lt;mxCell id=&quot;0&quot; /&gt;" style="text;strokeColor=none;fillColor=none;align=left;verticalAlign=top;spacingLeft=4;spacingRight=4;overflow=hidden;rotatable=0;points=[[0,0.5],[1,0.5]];portConstraint=eastwest;" vertex="1" parent="cZ7Azyq3l8PFZMw_IofY-2">
          <mxGeometry y="78" width="1100" height="26" as="geometry" />
        </mxCell>
        <mxCell id="cZ7Azyq3l8PFZMw_IofY-6" value="    &lt;mxCell id=&quot;1&quot; parent=&quot;0&quot; /&gt;" style="text;strokeColor=none;fillColor=none;align=left;verticalAlign=top;spacingLeft=4;spacingRight=4;overflow=hidden;rotatable=0;points=[[0,0.5],[1,0.5]];portConstraint=eastwest;" vertex="1" parent="cZ7Azyq3l8PFZMw_IofY-2">
          <mxGeometry y="104" width="1100" height="26" as="geometry" />
        </mxCell>
        <mxCell id="cZ7Azyq3l8PFZMw_IofY-7" value="    " style="text;strokeColor=none;fillColor=none;align=left;verticalAlign=top;spacingLeft=4;spacingRight=4;overflow=hidden;rotatable=0;points=[[0,0.5],[1,0.5]];portConstraint=eastwest;" vertex="1" parent="cZ7Azyq3l8PFZMw_IofY-2">
          <mxGeometry y="130" width="1100" height="26" as="geometry" />
        </mxCell>
        <mxCell id="cZ7Azyq3l8PFZMw_IofY-8" value="    &lt;!-- Start Node --&gt;" style="text;strokeColor=none;fillColor=none;align=left;verticalAlign=top;spacingLeft=4;spacingRight=4;overflow=hidden;rotatable=0;points=[[0,0.5],[1,0.5]];portConstraint=eastwest;" vertex="1" parent="cZ7Azyq3l8PFZMw_IofY-2">
          <mxGeometry y="156" width="1100" height="26" as="geometry" />
        </mxCell>
        <mxCell id="cZ7Azyq3l8PFZMw_IofY-9" value="    &lt;mxCell id=&quot;2&quot; value=&quot;Start&quot; style=&quot;ellipse;fillColor=#D5E8D4;strokeColor=#82B366;fontSize=14;&quot; vertex=&quot;1&quot; parent=&quot;1&quot;&gt;" style="text;strokeColor=none;fillColor=none;align=left;verticalAlign=top;spacingLeft=4;spacingRight=4;overflow=hidden;rotatable=0;points=[[0,0.5],[1,0.5]];portConstraint=eastwest;" vertex="1" parent="cZ7Azyq3l8PFZMw_IofY-2">
          <mxGeometry y="182" width="1100" height="26" as="geometry" />
        </mxCell>
        <mxCell id="cZ7Azyq3l8PFZMw_IofY-10" value="      &lt;mxGeometry x=&quot;300&quot; y=&quot;20&quot; width=&quot;120&quot; height=&quot;50&quot; as=&quot;geometry&quot; /&gt;" style="text;strokeColor=none;fillColor=none;align=left;verticalAlign=top;spacingLeft=4;spacingRight=4;overflow=hidden;rotatable=0;points=[[0,0.5],[1,0.5]];portConstraint=eastwest;" vertex="1" parent="cZ7Azyq3l8PFZMw_IofY-2">
          <mxGeometry y="208" width="1100" height="26" as="geometry" />
        </mxCell>
        <mxCell id="cZ7Azyq3l8PFZMw_IofY-11" value="    &lt;/mxCell&gt;" style="text;strokeColor=none;fillColor=none;align=left;verticalAlign=top;spacingLeft=4;spacingRight=4;overflow=hidden;rotatable=0;points=[[0,0.5],[1,0.5]];portConstraint=eastwest;" vertex="1" parent="cZ7Azyq3l8PFZMw_IofY-2">
          <mxGeometry y="234" width="1100" height="26" as="geometry" />
        </mxCell>
        <mxCell id="cZ7Azyq3l8PFZMw_IofY-12" value="    &lt;!-- Data Collection --&gt;" style="swimlane;fontStyle=1;childLayout=stackLayout;horizontal=1;startSize=26;horizontalStack=0;resizeParent=1;resizeParentMax=0;resizeLast=0;collapsible=1;marginBottom=0;" vertex="1" parent="1">
          <mxGeometry x="-1020" y="160" width="970" height="104" as="geometry" />
        </mxCell>
        <mxCell id="cZ7Azyq3l8PFZMw_IofY-13" value="    &lt;mxCell id=&quot;3&quot; value=&quot;Data Collection: Sensors Capture Temperature &amp; Humidity&quot; style=&quot;rhombus;fillColor=#FFF2CC;strokeColor=#D6B656;fontSize=12;&quot; vertex=&quot;1&quot; parent=&quot;1&quot;&gt;" style="text;strokeColor=none;fillColor=none;align=left;verticalAlign=top;spacingLeft=4;spacingRight=4;overflow=hidden;rotatable=0;points=[[0,0.5],[1,0.5]];portConstraint=eastwest;" vertex="1" parent="cZ7Azyq3l8PFZMw_IofY-12">
          <mxGeometry y="26" width="970" height="26" as="geometry" />
        </mxCell>
        <mxCell id="cZ7Azyq3l8PFZMw_IofY-14" value="      &lt;mxGeometry x=&quot;260&quot; y=&quot;90&quot; width=&quot;200&quot; height=&quot;60&quot; as=&quot;geometry&quot; /&gt;" style="text;strokeColor=none;fillColor=none;align=left;verticalAlign=top;spacingLeft=4;spacingRight=4;overflow=hidden;rotatable=0;points=[[0,0.5],[1,0.5]];portConstraint=eastwest;" vertex="1" parent="cZ7Azyq3l8PFZMw_IofY-12">
          <mxGeometry y="52" width="970" height="26" as="geometry" />
        </mxCell>
        <mxCell id="cZ7Azyq3l8PFZMw_IofY-15" value="    &lt;/mxCell&gt;" style="text;strokeColor=none;fillColor=none;align=left;verticalAlign=top;spacingLeft=4;spacingRight=4;overflow=hidden;rotatable=0;points=[[0,0.5],[1,0.5]];portConstraint=eastwest;" vertex="1" parent="cZ7Azyq3l8PFZMw_IofY-12">
          <mxGeometry y="78" width="970" height="26" as="geometry" />
        </mxCell>
        <mxCell id="cZ7Azyq3l8PFZMw_IofY-16" value="    &lt;!-- Data Transmission --&gt;" style="swimlane;fontStyle=1;childLayout=stackLayout;horizontal=1;startSize=26;horizontalStack=0;resizeParent=1;resizeParentMax=0;resizeLast=0;collapsible=1;marginBottom=0;" vertex="1" parent="1">
          <mxGeometry x="-810" y="160" width="930" height="104" as="geometry" />
        </mxCell>
        <mxCell id="cZ7Azyq3l8PFZMw_IofY-17" value="    &lt;mxCell id=&quot;4&quot; value=&quot;Data Transmission: ESP32 Sends Data to Server&quot; style=&quot;rectangle;fillColor=#D9EAD3;strokeColor=#82B366;fontSize=12;&quot; vertex=&quot;1&quot; parent=&quot;1&quot;&gt;" style="text;strokeColor=none;fillColor=none;align=left;verticalAlign=top;spacingLeft=4;spacingRight=4;overflow=hidden;rotatable=0;points=[[0,0.5],[1,0.5]];portConstraint=eastwest;" vertex="1" parent="cZ7Azyq3l8PFZMw_IofY-16">
          <mxGeometry y="26" width="930" height="26" as="geometry" />
        </mxCell>
        <mxCell id="cZ7Azyq3l8PFZMw_IofY-18" value="      &lt;mxGeometry x=&quot;260&quot; y=&quot;170&quot; width=&quot;200&quot; height=&quot;50&quot; as=&quot;geometry&quot; /&gt;" style="text;strokeColor=none;fillColor=none;align=left;verticalAlign=top;spacingLeft=4;spacingRight=4;overflow=hidden;rotatable=0;points=[[0,0.5],[1,0.5]];portConstraint=eastwest;" vertex="1" parent="cZ7Azyq3l8PFZMw_IofY-16">
          <mxGeometry y="52" width="930" height="26" as="geometry" />
        </mxCell>
        <mxCell id="cZ7Azyq3l8PFZMw_IofY-19" value="    &lt;/mxCell&gt;" style="text;strokeColor=none;fillColor=none;align=left;verticalAlign=top;spacingLeft=4;spacingRight=4;overflow=hidden;rotatable=0;points=[[0,0.5],[1,0.5]];portConstraint=eastwest;" vertex="1" parent="cZ7Azyq3l8PFZMw_IofY-16">
          <mxGeometry y="78" width="930" height="26" as="geometry" />
        </mxCell>
        <mxCell id="cZ7Azyq3l8PFZMw_IofY-20" value="    &lt;!-- Heat Index Calculation --&gt;" style="swimlane;fontStyle=1;childLayout=stackLayout;horizontal=1;startSize=26;horizontalStack=0;resizeParent=1;resizeParentMax=0;resizeLast=0;collapsible=1;marginBottom=0;" vertex="1" parent="1">
          <mxGeometry x="-580" y="160" width="920" height="104" as="geometry" />
        </mxCell>
        <mxCell id="cZ7Azyq3l8PFZMw_IofY-21" value="    &lt;mxCell id=&quot;5&quot; value=&quot;Heat Index Calculation: Apply PAGASA Formula&quot; style=&quot;rectangle;fillColor=#FCE5CD;strokeColor=#E69138;fontSize=12;&quot; vertex=&quot;1&quot; parent=&quot;1&quot;&gt;" style="text;strokeColor=none;fillColor=none;align=left;verticalAlign=top;spacingLeft=4;spacingRight=4;overflow=hidden;rotatable=0;points=[[0,0.5],[1,0.5]];portConstraint=eastwest;" vertex="1" parent="cZ7Azyq3l8PFZMw_IofY-20">
          <mxGeometry y="26" width="920" height="26" as="geometry" />
        </mxCell>
        <mxCell id="cZ7Azyq3l8PFZMw_IofY-22" value="      &lt;mxGeometry x=&quot;260&quot; y=&quot;240&quot; width=&quot;200&quot; height=&quot;50&quot; as=&quot;geometry&quot; /&gt;" style="text;strokeColor=none;fillColor=none;align=left;verticalAlign=top;spacingLeft=4;spacingRight=4;overflow=hidden;rotatable=0;points=[[0,0.5],[1,0.5]];portConstraint=eastwest;" vertex="1" parent="cZ7Azyq3l8PFZMw_IofY-20">
          <mxGeometry y="52" width="920" height="26" as="geometry" />
        </mxCell>
        <mxCell id="cZ7Azyq3l8PFZMw_IofY-23" value="    &lt;/mxCell&gt;" style="text;strokeColor=none;fillColor=none;align=left;verticalAlign=top;spacingLeft=4;spacingRight=4;overflow=hidden;rotatable=0;points=[[0,0.5],[1,0.5]];portConstraint=eastwest;" vertex="1" parent="cZ7Azyq3l8PFZMw_IofY-20">
          <mxGeometry y="78" width="920" height="26" as="geometry" />
        </mxCell>
        <mxCell id="cZ7Azyq3l8PFZMw_IofY-24" value="    &lt;!-- Data Storage --&gt;" style="swimlane;fontStyle=1;childLayout=stackLayout;horizontal=1;startSize=26;horizontalStack=0;resizeParent=1;resizeParentMax=0;resizeLast=0;collapsible=1;marginBottom=0;" vertex="1" parent="1">
          <mxGeometry x="-330" y="160" width="980" height="104" as="geometry" />
        </mxCell>
        <mxCell id="cZ7Azyq3l8PFZMw_IofY-25" value="    &lt;mxCell id=&quot;6&quot; value=&quot;Data Storage &amp; Processing: Store &amp; Analyze Monthly Stats&quot; style=&quot;rectangle;fillColor=#C9DAF8;strokeColor=#6C8EBF;fontSize=12;&quot; vertex=&quot;1&quot; parent=&quot;1&quot;&gt;" style="text;strokeColor=none;fillColor=none;align=left;verticalAlign=top;spacingLeft=4;spacingRight=4;overflow=hidden;rotatable=0;points=[[0,0.5],[1,0.5]];portConstraint=eastwest;" vertex="1" parent="cZ7Azyq3l8PFZMw_IofY-24">
          <mxGeometry y="26" width="980" height="26" as="geometry" />
        </mxCell>
        <mxCell id="cZ7Azyq3l8PFZMw_IofY-26" value="      &lt;mxGeometry x=&quot;260&quot; y=&quot;310&quot; width=&quot;200&quot; height=&quot;50&quot; as=&quot;geometry&quot; /&gt;" style="text;strokeColor=none;fillColor=none;align=left;verticalAlign=top;spacingLeft=4;spacingRight=4;overflow=hidden;rotatable=0;points=[[0,0.5],[1,0.5]];portConstraint=eastwest;" vertex="1" parent="cZ7Azyq3l8PFZMw_IofY-24">
          <mxGeometry y="52" width="980" height="26" as="geometry" />
        </mxCell>
        <mxCell id="cZ7Azyq3l8PFZMw_IofY-27" value="    &lt;/mxCell&gt;" style="text;strokeColor=none;fillColor=none;align=left;verticalAlign=top;spacingLeft=4;spacingRight=4;overflow=hidden;rotatable=0;points=[[0,0.5],[1,0.5]];portConstraint=eastwest;" vertex="1" parent="cZ7Azyq3l8PFZMw_IofY-24">
          <mxGeometry y="78" width="980" height="26" as="geometry" />
        </mxCell>
        <mxCell id="cZ7Azyq3l8PFZMw_IofY-28" value="    &lt;!-- Visualization &amp; Alerts --&gt;" style="swimlane;fontStyle=1;childLayout=stackLayout;horizontal=1;startSize=26;horizontalStack=0;resizeParent=1;resizeParentMax=0;resizeLast=0;collapsible=1;marginBottom=0;" vertex="1" parent="1">
          <mxGeometry x="-130" y="160" width="960" height="104" as="geometry" />
        </mxCell>
        <mxCell id="cZ7Azyq3l8PFZMw_IofY-29" value="    &lt;mxCell id=&quot;7&quot; value=&quot;Visualization &amp; Alerts: Update Map &amp; Send Notifications&quot; style=&quot;rectangle;fillColor=#EAD1DC;strokeColor=#A64D79;fontSize=12;&quot; vertex=&quot;1&quot; parent=&quot;1&quot;&gt;" style="text;strokeColor=none;fillColor=none;align=left;verticalAlign=top;spacingLeft=4;spacingRight=4;overflow=hidden;rotatable=0;points=[[0,0.5],[1,0.5]];portConstraint=eastwest;" vertex="1" parent="cZ7Azyq3l8PFZMw_IofY-28">
          <mxGeometry y="26" width="960" height="26" as="geometry" />
        </mxCell>
        <mxCell id="cZ7Azyq3l8PFZMw_IofY-30" value="      &lt;mxGeometry x=&quot;260&quot; y=&quot;380&quot; width=&quot;200&quot; height=&quot;50&quot; as=&quot;geometry&quot; /&gt;" style="text;strokeColor=none;fillColor=none;align=left;verticalAlign=top;spacingLeft=4;spacingRight=4;overflow=hidden;rotatable=0;points=[[0,0.5],[1,0.5]];portConstraint=eastwest;" vertex="1" parent="cZ7Azyq3l8PFZMw_IofY-28">
          <mxGeometry y="52" width="960" height="26" as="geometry" />
        </mxCell>
        <mxCell id="cZ7Azyq3l8PFZMw_IofY-31" value="    &lt;/mxCell&gt;" style="text;strokeColor=none;fillColor=none;align=left;verticalAlign=top;spacingLeft=4;spacingRight=4;overflow=hidden;rotatable=0;points=[[0,0.5],[1,0.5]];portConstraint=eastwest;" vertex="1" parent="cZ7Azyq3l8PFZMw_IofY-28">
          <mxGeometry y="78" width="960" height="26" as="geometry" />
        </mxCell>
        <mxCell id="cZ7Azyq3l8PFZMw_IofY-32" value="    &lt;!-- End Node --&gt;" style="swimlane;fontStyle=1;childLayout=stackLayout;horizontal=1;startSize=26;horizontalStack=0;resizeParent=1;resizeParentMax=0;resizeLast=0;collapsible=1;marginBottom=0;" vertex="1" parent="1">
          <mxGeometry x="110" y="160" width="670" height="104" as="geometry" />
        </mxCell>
        <mxCell id="cZ7Azyq3l8PFZMw_IofY-33" value="    &lt;mxCell id=&quot;8&quot; value=&quot;End&quot; style=&quot;ellipse;fillColor=#D5E8D4;strokeColor=#82B366;fontSize=14;&quot; vertex=&quot;1&quot; parent=&quot;1&quot;&gt;" style="text;strokeColor=none;fillColor=none;align=left;verticalAlign=top;spacingLeft=4;spacingRight=4;overflow=hidden;rotatable=0;points=[[0,0.5],[1,0.5]];portConstraint=eastwest;" vertex="1" parent="cZ7Azyq3l8PFZMw_IofY-32">
          <mxGeometry y="26" width="670" height="26" as="geometry" />
        </mxCell>
        <mxCell id="cZ7Azyq3l8PFZMw_IofY-34" value="      &lt;mxGeometry x=&quot;300&quot; y=&quot;460&quot; width=&quot;120&quot; height=&quot;50&quot; as=&quot;geometry&quot; /&gt;" style="text;strokeColor=none;fillColor=none;align=left;verticalAlign=top;spacingLeft=4;spacingRight=4;overflow=hidden;rotatable=0;points=[[0,0.5],[1,0.5]];portConstraint=eastwest;" vertex="1" parent="cZ7Azyq3l8PFZMw_IofY-32">
          <mxGeometry y="52" width="670" height="26" as="geometry" />
        </mxCell>
        <mxCell id="cZ7Azyq3l8PFZMw_IofY-35" value="    &lt;/mxCell&gt;" style="text;strokeColor=none;fillColor=none;align=left;verticalAlign=top;spacingLeft=4;spacingRight=4;overflow=hidden;rotatable=0;points=[[0,0.5],[1,0.5]];portConstraint=eastwest;" vertex="1" parent="cZ7Azyq3l8PFZMw_IofY-32">
          <mxGeometry y="78" width="670" height="26" as="geometry" />
        </mxCell>
        <mxCell id="cZ7Azyq3l8PFZMw_IofY-36" value="    &lt;!-- Arrows --&gt;" style="swimlane;fontStyle=1;childLayout=stackLayout;horizontal=1;startSize=26;horizontalStack=0;resizeParent=1;resizeParentMax=0;resizeLast=0;collapsible=1;marginBottom=0;" vertex="1" parent="1">
          <mxGeometry x="310" y="160" width="350" height="208" as="geometry" />
        </mxCell>
        <mxCell id="cZ7Azyq3l8PFZMw_IofY-37" value="    &lt;mxCell id=&quot;9&quot; edge=&quot;1&quot; source=&quot;2&quot; target=&quot;3&quot; parent=&quot;1&quot;&gt;" style="text;strokeColor=none;fillColor=none;align=left;verticalAlign=top;spacingLeft=4;spacingRight=4;overflow=hidden;rotatable=0;points=[[0,0.5],[1,0.5]];portConstraint=eastwest;" vertex="1" parent="cZ7Azyq3l8PFZMw_IofY-36">
          <mxGeometry y="26" width="350" height="26" as="geometry" />
        </mxCell>
        <mxCell id="cZ7Azyq3l8PFZMw_IofY-38" value="      &lt;mxGeometry relative=&quot;1&quot; as=&quot;geometry&quot; /&gt;" style="text;strokeColor=none;fillColor=none;align=left;verticalAlign=top;spacingLeft=4;spacingRight=4;overflow=hidden;rotatable=0;points=[[0,0.5],[1,0.5]];portConstraint=eastwest;" vertex="1" parent="cZ7Azyq3l8PFZMw_IofY-36">
          <mxGeometry y="52" width="350" height="26" as="geometry" />
        </mxCell>
        <mxCell id="cZ7Azyq3l8PFZMw_IofY-39" value="    &lt;/mxCell&gt;" style="text;strokeColor=none;fillColor=none;align=left;verticalAlign=top;spacingLeft=4;spacingRight=4;overflow=hidden;rotatable=0;points=[[0,0.5],[1,0.5]];portConstraint=eastwest;" vertex="1" parent="cZ7Azyq3l8PFZMw_IofY-36">
          <mxGeometry y="78" width="350" height="26" as="geometry" />
        </mxCell>
        <mxCell id="cZ7Azyq3l8PFZMw_IofY-40" value="    " style="text;strokeColor=none;fillColor=none;align=left;verticalAlign=top;spacingLeft=4;spacingRight=4;overflow=hidden;rotatable=0;points=[[0,0.5],[1,0.5]];portConstraint=eastwest;" vertex="1" parent="cZ7Azyq3l8PFZMw_IofY-36">
          <mxGeometry y="104" width="350" height="26" as="geometry" />
        </mxCell>
        <mxCell id="cZ7Azyq3l8PFZMw_IofY-41" value="    &lt;mxCell id=&quot;10&quot; edge=&quot;1&quot; source=&quot;3&quot; target=&quot;4&quot; parent=&quot;1&quot;&gt;" style="text;strokeColor=none;fillColor=none;align=left;verticalAlign=top;spacingLeft=4;spacingRight=4;overflow=hidden;rotatable=0;points=[[0,0.5],[1,0.5]];portConstraint=eastwest;" vertex="1" parent="cZ7Azyq3l8PFZMw_IofY-36">
          <mxGeometry y="130" width="350" height="26" as="geometry" />
        </mxCell>
        <mxCell id="cZ7Azyq3l8PFZMw_IofY-42" value="      &lt;mxGeometry relative=&quot;1&quot; as=&quot;geometry&quot; /&gt;" style="text;strokeColor=none;fillColor=none;align=left;verticalAlign=top;spacingLeft=4;spacingRight=4;overflow=hidden;rotatable=0;points=[[0,0.5],[1,0.5]];portConstraint=eastwest;" vertex="1" parent="cZ7Azyq3l8PFZMw_IofY-36">
          <mxGeometry y="156" width="350" height="26" as="geometry" />
        </mxCell>
        <mxCell id="cZ7Azyq3l8PFZMw_IofY-43" value="    &lt;/mxCell&gt;" style="text;strokeColor=none;fillColor=none;align=left;verticalAlign=top;spacingLeft=4;spacingRight=4;overflow=hidden;rotatable=0;points=[[0,0.5],[1,0.5]];portConstraint=eastwest;" vertex="1" parent="cZ7Azyq3l8PFZMw_IofY-36">
          <mxGeometry y="182" width="350" height="26" as="geometry" />
        </mxCell>
        <mxCell id="cZ7Azyq3l8PFZMw_IofY-44" value="    &lt;mxCell id=&quot;11&quot; edge=&quot;1&quot; source=&quot;4&quot; target=&quot;5&quot; parent=&quot;1&quot;&gt;" style="swimlane;fontStyle=1;childLayout=stackLayout;horizontal=1;startSize=26;horizontalStack=0;resizeParent=1;resizeParentMax=0;resizeLast=0;collapsible=1;marginBottom=0;" vertex="1" parent="1">
          <mxGeometry x="510" y="160" width="370" height="78" as="geometry" />
        </mxCell>
        <mxCell id="cZ7Azyq3l8PFZMw_IofY-45" value="      &lt;mxGeometry relative=&quot;1&quot; as=&quot;geometry&quot; /&gt;" style="text;strokeColor=none;fillColor=none;align=left;verticalAlign=top;spacingLeft=4;spacingRight=4;overflow=hidden;rotatable=0;points=[[0,0.5],[1,0.5]];portConstraint=eastwest;" vertex="1" parent="cZ7Azyq3l8PFZMw_IofY-44">
          <mxGeometry y="26" width="370" height="26" as="geometry" />
        </mxCell>
        <mxCell id="cZ7Azyq3l8PFZMw_IofY-46" value="    &lt;/mxCell&gt;" style="text;strokeColor=none;fillColor=none;align=left;verticalAlign=top;spacingLeft=4;spacingRight=4;overflow=hidden;rotatable=0;points=[[0,0.5],[1,0.5]];portConstraint=eastwest;" vertex="1" parent="cZ7Azyq3l8PFZMw_IofY-44">
          <mxGeometry y="52" width="370" height="26" as="geometry" />
        </mxCell>
        <mxCell id="cZ7Azyq3l8PFZMw_IofY-47" value="    &lt;mxCell id=&quot;12&quot; edge=&quot;1&quot; source=&quot;5&quot; target=&quot;6&quot; parent=&quot;1&quot;&gt;" style="swimlane;fontStyle=1;childLayout=stackLayout;horizontal=1;startSize=26;horizontalStack=0;resizeParent=1;resizeParentMax=0;resizeLast=0;collapsible=1;marginBottom=0;" vertex="1" parent="1">
          <mxGeometry x="920" y="160" width="370" height="78" as="geometry" />
        </mxCell>
        <mxCell id="cZ7Azyq3l8PFZMw_IofY-48" value="      &lt;mxGeometry relative=&quot;1&quot; as=&quot;geometry&quot; /&gt;" style="text;strokeColor=none;fillColor=none;align=left;verticalAlign=top;spacingLeft=4;spacingRight=4;overflow=hidden;rotatable=0;points=[[0,0.5],[1,0.5]];portConstraint=eastwest;" vertex="1" parent="cZ7Azyq3l8PFZMw_IofY-47">
          <mxGeometry y="26" width="370" height="26" as="geometry" />
        </mxCell>
        <mxCell id="cZ7Azyq3l8PFZMw_IofY-49" value="    &lt;/mxCell&gt;" style="text;strokeColor=none;fillColor=none;align=left;verticalAlign=top;spacingLeft=4;spacingRight=4;overflow=hidden;rotatable=0;points=[[0,0.5],[1,0.5]];portConstraint=eastwest;" vertex="1" parent="cZ7Azyq3l8PFZMw_IofY-47">
          <mxGeometry y="52" width="370" height="26" as="geometry" />
        </mxCell>
        <mxCell id="cZ7Azyq3l8PFZMw_IofY-50" value="    &lt;mxCell id=&quot;13&quot; edge=&quot;1&quot; source=&quot;6&quot; target=&quot;7&quot; parent=&quot;1&quot;&gt;" style="swimlane;fontStyle=1;childLayout=stackLayout;horizontal=1;startSize=26;horizontalStack=0;resizeParent=1;resizeParentMax=0;resizeLast=0;collapsible=1;marginBottom=0;" vertex="1" parent="1">
          <mxGeometry x="1330" y="160" width="370" height="78" as="geometry" />
        </mxCell>
        <mxCell id="cZ7Azyq3l8PFZMw_IofY-51" value="      &lt;mxGeometry relative=&quot;1&quot; as=&quot;geometry&quot; /&gt;" style="text;strokeColor=none;fillColor=none;align=left;verticalAlign=top;spacingLeft=4;spacingRight=4;overflow=hidden;rotatable=0;points=[[0,0.5],[1,0.5]];portConstraint=eastwest;" vertex="1" parent="cZ7Azyq3l8PFZMw_IofY-50">
          <mxGeometry y="26" width="370" height="26" as="geometry" />
        </mxCell>
        <mxCell id="cZ7Azyq3l8PFZMw_IofY-52" value="    &lt;/mxCell&gt;" style="text;strokeColor=none;fillColor=none;align=left;verticalAlign=top;spacingLeft=4;spacingRight=4;overflow=hidden;rotatable=0;points=[[0,0.5],[1,0.5]];portConstraint=eastwest;" vertex="1" parent="cZ7Azyq3l8PFZMw_IofY-50">
          <mxGeometry y="52" width="370" height="26" as="geometry" />
        </mxCell>
        <mxCell id="cZ7Azyq3l8PFZMw_IofY-53" value="    &lt;mxCell id=&quot;14&quot; edge=&quot;1&quot; source=&quot;7&quot; target=&quot;8&quot; parent=&quot;1&quot;&gt;" style="swimlane;fontStyle=1;childLayout=stackLayout;horizontal=1;startSize=26;horizontalStack=0;resizeParent=1;resizeParentMax=0;resizeLast=0;collapsible=1;marginBottom=0;" vertex="1" parent="1">
          <mxGeometry x="1740" y="160" width="370" height="78" as="geometry" />
        </mxCell>
        <mxCell id="cZ7Azyq3l8PFZMw_IofY-54" value="      &lt;mxGeometry relative=&quot;1&quot; as=&quot;geometry&quot; /&gt;" style="text;strokeColor=none;fillColor=none;align=left;verticalAlign=top;spacingLeft=4;spacingRight=4;overflow=hidden;rotatable=0;points=[[0,0.5],[1,0.5]];portConstraint=eastwest;" vertex="1" parent="cZ7Azyq3l8PFZMw_IofY-53">
          <mxGeometry y="26" width="370" height="26" as="geometry" />
        </mxCell>
        <mxCell id="cZ7Azyq3l8PFZMw_IofY-55" value="    &lt;/mxCell&gt;" style="text;strokeColor=none;fillColor=none;align=left;verticalAlign=top;spacingLeft=4;spacingRight=4;overflow=hidden;rotatable=0;points=[[0,0.5],[1,0.5]];portConstraint=eastwest;" vertex="1" parent="cZ7Azyq3l8PFZMw_IofY-53">
          <mxGeometry y="52" width="370" height="26" as="geometry" />
        </mxCell>
        <mxCell id="cZ7Azyq3l8PFZMw_IofY-56" value="  &lt;/root&gt;" style="swimlane;fontStyle=1;childLayout=stackLayout;horizontal=1;startSize=26;horizontalStack=0;resizeParent=1;resizeParentMax=0;resizeLast=0;collapsible=1;marginBottom=0;" vertex="1" parent="1">
          <mxGeometry x="2150" y="160" width="160" height="52" as="geometry" />
        </mxCell>
        <mxCell id="cZ7Azyq3l8PFZMw_IofY-57" value="&lt;/mxGraphModel&gt;" style="text;strokeColor=none;fillColor=none;align=left;verticalAlign=top;spacingLeft=4;spacingRight=4;overflow=hidden;rotatable=0;points=[[0,0.5],[1,0.5]];portConstraint=eastwest;" vertex="1" parent="cZ7Azyq3l8PFZMw_IofY-56">
          <mxGeometry y="26" width="160" height="26" as="geometry" />
        </mxCell>
      </root>
    </mxGraphModel>
  </diagram>
</mxfile>
